<?xml version="1.0" encoding="utf-8"?>
<!-- Generator: Adobe Illustrator 25.4.1, SVG Export Plug-In . SVG Version: 6.00 Build 0)  -->
<svg version="1.1" id="Capa_2" xmlns="http://www.w3.org/2000/svg" xmlns:xlink="http://www.w3.org/1999/xlink" x="0px" y="0px"
	 viewBox="0 0 500 500" style="enable-background:new 0 0 500 500;" xml:space="preserve">
<g>
	<path d="M441.8,179c-6.9-18.6-42.3-18.8-72.2-15.3c-4-5.5-8.4-10.7-13.1-15.6c11.3-9.3,18.5-23.4,18.5-39.1
		c0-28-22.8-50.7-50.7-50.7c-26.5,0-48.3,20.4-50.5,46.4c-7.7-1.2-15.5-1.9-23.5-1.9c-33.6,0-66.4,11.6-92.5,32.6
		c-25.7,20.7-43.9,49.8-51.2,81.8c-0.6,2.7,1.1,5.4,3.8,6c2.7,0.6,5.4-1.1,6-3.8c14.4-62.8,69.5-106.6,134-106.6
		c8.1,0,16,0.7,23.7,2.1c2.9,25.2,24.4,44.9,50.4,44.9c8.6,0,16.7-2.2,23.8-5.9c15.9,16.1,27.9,36.2,34.3,58.5
		c-4.7,2.9-10.3,6-16.8,9.6c-28.5,15.3-66.9,32.2-108.2,47.6c-41.3,15.4-81.4,27.7-112.9,34.7c-7.3,1.6-13.6,2.8-19,3.8
		c-8.1-17.5-12.7-37.1-12.7-57.7c0-2.7,0.1-5.5,0.2-8.2c0.2-2.8-1.9-5.1-4.7-5.3c-2.8-0.2-5.1,1.9-5.3,4.7c-0.2,2.9-0.3,5.8-0.3,8.7
		c0,4.2,0.2,8.4,0.5,12.5c-24.7,16.8-51.5,40.1-44.5,58.7c4.8,12.9,23.2,17,44.8,17c8.8,0,18.2-0.7,27.4-1.8
		c26.8,36.9,70.3,61,119.3,61c43.6,0,84.7-19.1,112.8-52.4c1.8-2.1,1.5-5.3-0.6-7s-5.3-1.5-7,0.6c-26.2,31.1-64.5,48.9-105.1,48.9
		c-43.7,0-82.8-20.5-108-52.5c12.6-1.9,24.2-4.2,32.6-6.1c2.7-0.6,4.4-3.3,3.8-6c-0.6-2.7-3.3-4.4-6-3.8
		c-66,14.7-100.5,9.6-104.6-1.4c-2.7-7.2,5.8-22.3,36.6-44c0.5,3.3,1.2,6.5,1.9,9.7c-19.1,12.4-26.3,21.3-23.5,28.8
		c1.5,4,5.4,7.8,19.4,7.8c8.8,0,21.6-1.5,40.2-5.5c32.6-7,74.6-19.7,118.2-36c43.6-16.2,83.8-34,113-50.1
		c43.2-23.7,46-34.2,43.6-40.7c-2.8-7.5-14.2-9.5-36.7-6.4c-1.5-2.9-3.2-5.8-4.9-8.5c37.5-3.7,53.8,2.2,56.5,9.4
		c2.8,7.4-6.5,23.6-40.8,46.9c-31.7,21.6-76.5,43.6-126,62c-24.4,9.1-48.4,16.7-71.6,22.8c-2.7,0.7-4.3,3.4-3.6,6.1
		c0.6,2.2,2.6,3.7,4.8,3.7c0.4,0,0.8-0.1,1.3-0.2c23.5-6.1,47.9-13.9,72.6-23.1c43.1-16.1,86.1-36.4,118.5-56.9
		c0.1,2.1,0.1,4.2,0.1,6.3c0,24.8-6.7,49.1-19.3,70.3c-1.4,2.4-0.6,5.4,1.7,6.9c0.8,0.5,1.7,0.7,2.6,0.7c1.7,0,3.4-0.9,4.3-2.4
		c13.6-22.7,20.7-48.8,20.7-75.5c0-4.2-0.2-8.4-0.5-12.6C428.9,216.2,447.8,195.1,441.8,179z M283.6,109c0-22.5,18.3-40.7,40.7-40.7
		c22.5,0,40.7,18.3,40.7,40.7s-18.3,40.7-40.7,40.7C301.9,149.8,283.6,131.5,283.6,109z M92.7,309c0.5-1.3,3.2-5.9,16.7-15.1
		c1.7,5.3,3.6,10.5,5.8,15.6C99,311.4,93.9,309.6,92.7,309z M408,191.6c-0.5,1.3-3.2,6-16.8,15.1c-1.7-5.3-3.6-10.5-5.8-15.6
		C401.7,189.2,406.7,191,408,191.6z"/>
	<path d="M126.8,370.9c-19.5,0-35.3,15.9-35.3,35.3c0,19.5,15.9,35.3,35.3,35.3s35.3-15.9,35.3-35.3
		C162.1,386.8,146.3,370.9,126.8,370.9z M126.8,431.6c-14,0-25.3-11.4-25.3-25.3s11.4-25.3,25.3-25.3s25.3,11.4,25.3,25.3
		S140.7,431.6,126.8,431.6z"/>
</g>
</svg>
